<?xml version="1.0" encoding="UTF-8"?><svg xmlns="http://www.w3.org/2000/svg" viewBox="0 0 24 24"><defs><style>.v{fill:#231f20;}</style></defs><g id="a"/><g id="b"/><g id="c"/><g id="d"/><g id="e"/><g id="f"><g><path class="v" d="M12,2.25c-2.82,0-5.43,1.21-7.25,3.24V3c0-.41-.34-.75-.75-.75s-.75,.34-.75,.75v5c0,.41,.34,.75,.75,.75h5c.41,0,.75-.34,.75-.75s-.34-.75-.75-.75h-3.75c1.53-2.18,4.03-3.5,6.75-3.5,4.55,0,8.25,3.7,8.25,8.25,0,.41,.34,.75,.75,.75s.75-.34,.75-.75c0-5.38-4.37-9.75-9.75-9.75Z"/><path class="v" d="M20,15.25h-5c-.41,0-.75,.34-.75,.75s.34,.75,.75,.75h3.75c-1.53,2.18-4.03,3.5-6.75,3.5-4.55,0-8.25-3.7-8.25-8.25,0-.41-.34-.75-.75-.75s-.75,.34-.75,.75c0,5.38,4.37,9.75,9.75,9.75,2.82,0,5.43-1.21,7.25-3.24v2.49c0,.41,.34,.75,.75,.75s.75-.34,.75-.75v-5c0-.41-.34-.75-.75-.75Z"/></g></g><g id="g"/><g id="h"/><g id="i"/><g id="j"/><g id="k"/><g id="l"/><g id="m"/><g id="n"/><g id="o"/><g id="p"/><g id="q"/><g id="r"/><g id="s"/><g id="t"/><g id="u"/></svg>