<svg 
 xmlns="http://www.w3.org/2000/svg"
 xmlns:xlink="http://www.w3.org/1999/xlink"
 width="71.261mm" height="30.692mm">
<path fill-rule="evenodd"  fill="rgb(40, 40, 40)"
 d="M192.729,53.725 C198.596,56.651 201.990,60.064 201.990,63.960 C201.990,79.077 151.180,86.988 100.989,86.988 C50.798,86.988 -0.013,79.077 -0.013,63.960 C-0.013,60.064 3.381,56.651 9.249,53.725 C3.381,50.798 -0.013,47.385 -0.013,43.490 C-0.013,39.594 3.381,36.181 9.249,33.255 C3.381,30.328 -0.013,26.915 -0.013,23.020 C-0.013,7.902 50.798,-0.009 100.989,-0.009 C151.180,-0.009 201.990,7.902 201.990,23.020 C201.990,26.915 198.596,30.328 192.729,33.255 C198.596,36.181 201.990,39.594 201.990,43.490 C201.990,47.385 198.596,50.798 192.729,53.725 ZM100.989,81.871 C160.397,81.871 196.876,71.438 196.876,63.960 C196.876,61.593 193.213,58.931 186.336,56.397 C167.448,63.076 134.088,66.518 100.989,66.518 C67.889,66.518 34.530,63.076 15.642,56.397 C8.765,58.931 5.101,61.593 5.101,63.960 C5.101,71.438 41.581,81.871 100.989,81.871 ZM177.648,53.725 C161.190,49.432 134.813,46.048 100.989,46.048 C67.164,46.048 40.788,49.432 24.330,53.725 C40.788,58.018 67.164,61.401 100.989,61.401 C134.813,61.401 161.190,58.018 177.648,53.725 ZM5.101,43.490 C5.101,45.856 8.765,48.518 15.642,51.053 C25.084,47.713 38.149,45.187 52.987,43.492 C38.148,41.797 25.086,39.266 15.642,35.927 C8.765,38.461 5.101,41.123 5.101,43.490 ZM100.989,40.931 C134.813,40.931 161.190,37.548 177.648,33.255 C161.190,28.962 134.813,25.579 100.989,25.579 C67.164,25.579 40.788,28.962 24.330,33.255 C40.788,37.548 67.164,40.931 100.989,40.931 ZM196.876,23.020 C196.876,15.541 160.397,5.109 100.989,5.109 C41.581,5.109 5.101,15.541 5.101,23.020 C5.101,25.387 8.765,28.049 15.642,30.583 C34.530,23.904 67.889,20.461 100.989,20.461 C134.088,20.461 167.448,23.904 186.336,30.583 C193.213,28.049 196.876,25.387 196.876,23.020 ZM186.336,35.927 C176.892,39.266 163.829,41.797 148.991,43.492 C163.829,45.187 176.893,47.713 186.336,51.053 C193.213,48.518 196.876,45.856 196.876,43.490 C196.876,41.123 193.213,38.461 186.336,35.927 Z"/>
</svg>