<?xml version="1.0" encoding="UTF-8"?><svg xmlns="http://www.w3.org/2000/svg" viewBox="0 0 24 24"><defs><style>.v{fill:#231f20;}</style></defs><g id="a"/><g id="b"/><g id="c"/><g id="d"/><g id="e"><path class="v" d="M17.26,7.14c-.39-.15-.82,.05-.96,.44-.14,.39,.05,.82,.44,.96,2.17,.81,3.51,2.13,3.51,3.46,0,2.3-3.78,4.25-8.25,4.25S3.75,14.3,3.75,12c0-1.98,2.78-3.68,6.39-4.13l-1.67,1.67c-.29,.29-.29,.77,0,1.06,.15,.15,.34,.22,.53,.22s.38-.07,.53-.22l3.54-3.54c.14-.14,.22-.33,.22-.53s-.08-.39-.22-.53l-3.54-3.54c-.29-.29-.77-.29-1.06,0s-.29,.77,0,1.06l2.74,2.74c-5.08,.23-8.96,2.66-8.96,5.73,0,3.22,4.28,5.75,9.75,5.75s9.75-2.53,9.75-5.75c0-2-1.68-3.82-4.49-4.86Z"/></g><g id="f"/><g id="g"/><g id="h"/><g id="i"/><g id="j"/><g id="k"/><g id="l"/><g id="m"/><g id="n"/><g id="o"/><g id="p"/><g id="q"/><g id="r"/><g id="s"/><g id="t"/><g id="u"/></svg>