<svg 
 xmlns="http://www.w3.org/2000/svg"
 xmlns:xlink="http://www.w3.org/1999/xlink"
 width="83.608mm" height="50.094mm">
<path fill-rule="evenodd"  fill="rgb(40, 40, 40)"
 d="M166.140,142.004 C162.041,142.004 158.029,141.634 154.119,140.961 C150.433,141.588 146.652,141.932 142.791,141.932 C136.292,141.932 130.013,140.988 124.061,139.263 C121.504,139.580 118.907,139.762 116.266,139.762 C111.857,139.762 107.554,139.303 103.398,138.437 C99.350,139.308 95.155,139.776 90.851,139.776 C84.997,139.776 79.344,138.914 73.993,137.335 C73.273,137.362 72.552,137.390 71.825,137.390 C64.020,137.390 56.581,135.792 49.814,132.909 C37.421,131.842 26.256,126.403 17.864,118.145 C7.044,110.278 -0.011,97.515 -0.011,83.124 C-0.011,74.695 2.416,66.827 6.594,60.169 C13.968,43.249 30.041,30.975 49.122,29.076 C55.060,26.451 61.526,24.809 68.319,24.389 C74.416,21.894 81.012,20.378 87.913,20.042 C95.669,16.117 104.333,13.737 113.504,13.339 C120.270,10.061 127.653,7.867 135.436,7.018 C144.730,2.521 155.146,-0.002 166.140,-0.002 C205.206,-0.002 236.990,31.850 236.990,71.001 C236.990,110.152 205.206,142.004 166.140,142.004 ZM142.791,138.173 C142.928,138.173 143.063,138.163 143.199,138.162 C141.329,137.519 139.497,136.793 137.700,136.001 C136.213,136.541 134.694,137.015 133.157,137.443 C136.300,137.923 139.517,138.173 142.791,138.173 ZM5.982,80.966 C5.982,94.291 11.384,106.369 20.106,115.130 C23.737,117.764 27.832,119.790 32.243,121.065 C21.853,110.805 15.386,96.568 15.386,80.829 C15.386,68.330 19.470,56.780 26.348,47.411 C19.528,50.647 13.782,55.788 9.787,62.144 C7.339,67.932 5.982,74.292 5.982,80.966 ZM19.149,80.829 C19.149,97.724 27.115,112.777 39.477,122.439 C40.687,122.551 41.911,122.616 43.149,122.616 C45.026,122.616 46.869,122.475 48.676,122.220 C37.819,111.378 31.075,96.410 31.075,79.872 C31.075,66.252 35.659,53.704 43.334,43.637 C43.272,43.637 43.211,43.633 43.149,43.633 C39.769,43.633 36.487,44.062 33.353,44.869 C24.561,54.300 19.149,66.932 19.149,80.829 ZM34.811,79.872 C34.811,96.287 41.898,111.052 53.141,121.326 C57.939,120.065 62.378,117.914 66.282,115.067 C58.058,104.388 53.154,91.018 53.154,76.516 C53.154,66.066 55.721,56.220 60.227,47.537 C56.405,45.688 52.239,44.450 47.858,43.924 C39.723,53.669 34.811,66.200 34.811,79.872 ZM106.341,80.966 C106.341,86.338 105.525,91.522 104.013,96.402 C106.454,102.354 109.721,107.882 113.673,112.841 C120.458,103.954 124.502,92.858 124.502,80.829 C124.502,64.865 117.384,50.545 106.174,40.857 C103.626,45.914 101.722,51.343 100.512,57.028 C104.228,64.203 106.341,72.339 106.341,80.966 ZM99.432,63.684 C99.169,66.089 99.018,68.527 99.018,71.001 C99.018,77.601 99.987,83.973 101.769,89.998 C102.322,87.070 102.624,84.053 102.624,80.966 C102.624,74.878 101.487,69.055 99.432,63.684 ZM102.162,101.430 C100.045,106.383 97.178,110.936 93.715,114.962 C96.355,118.150 99.282,121.093 102.483,123.717 C105.691,121.407 108.631,118.749 111.245,115.792 C107.672,111.409 104.621,106.587 102.162,101.430 ZM91.160,117.743 C88.401,120.520 85.326,122.978 82.005,125.081 C84.706,126.998 87.570,128.699 90.577,130.150 C93.610,128.988 96.513,127.561 99.248,125.883 C96.326,123.405 93.627,120.675 91.160,117.743 ZM88.825,114.804 C86.016,111.066 83.592,107.024 81.594,102.746 C79.087,107.658 75.673,112.028 71.571,115.635 C73.791,118.175 76.216,120.532 78.832,122.664 C82.502,120.488 85.860,117.841 88.825,114.804 ZM68.673,117.976 C65.028,120.663 60.949,122.787 56.561,124.229 C58.609,125.821 60.760,127.286 63.018,128.587 C67.336,127.795 71.460,126.439 75.298,124.576 C72.928,122.545 70.720,120.332 68.673,117.976 ZM56.867,76.516 C56.867,90.140 61.477,102.689 69.194,112.724 C73.705,108.734 77.298,103.731 79.617,98.069 C76.818,90.666 75.275,82.650 75.275,74.270 C75.275,70.073 75.672,65.970 76.410,61.986 C73.135,56.829 68.707,52.476 63.483,49.309 C59.262,57.462 56.867,66.707 56.867,76.516 ZM82.556,83.124 C82.556,77.629 81.428,72.395 79.395,67.636 C79.168,69.819 79.026,72.027 79.026,74.270 C79.026,80.427 79.904,86.379 81.538,92.011 C82.197,89.153 82.556,86.181 82.556,83.124 ZM77.531,57.015 C78.903,51.843 80.863,46.907 83.351,42.296 C80.093,39.832 76.513,37.775 72.689,36.192 C69.909,39.201 67.446,42.503 65.325,46.033 C70.059,48.887 74.202,52.624 77.531,57.015 ZM80.383,61.289 C84.143,67.703 86.309,75.163 86.309,83.124 C86.309,88.378 85.368,93.415 83.648,98.077 C85.655,103.046 88.258,107.713 91.383,111.975 C95.158,107.449 98.116,102.222 100.051,96.523 C96.986,88.600 95.289,79.999 95.289,71.001 C95.289,66.403 95.746,61.914 96.588,57.562 C93.905,52.712 90.414,48.374 86.301,44.722 C83.599,49.870 81.601,55.437 80.383,61.289 ZM97.807,52.399 C99.138,47.534 100.947,42.865 103.226,38.472 C100.411,36.371 97.377,34.551 94.170,33.039 C91.951,35.658 89.947,38.463 88.166,41.417 C91.867,44.605 95.118,48.299 97.807,52.399 ZM105.060,35.155 C106.681,32.401 108.471,29.759 110.435,27.257 C107.836,26.283 105.147,25.495 102.383,24.913 C100.413,26.533 98.553,28.280 96.790,30.121 C99.697,31.565 102.462,33.251 105.060,35.155 ZM108.009,37.464 C120.379,47.848 128.264,63.431 128.264,80.829 C128.264,94.014 123.727,106.149 116.151,115.778 C118.901,118.853 121.912,121.689 125.177,124.216 C138.375,113.932 146.891,97.884 146.891,79.872 C146.891,57.173 133.375,37.590 113.992,28.744 C111.777,31.481 109.780,34.399 108.009,37.464 ZM150.627,79.872 C150.627,98.697 141.909,115.513 128.315,126.503 C131.325,128.567 134.505,130.401 137.839,131.960 C159.953,123.288 175.664,101.713 175.664,76.516 C175.664,46.771 153.780,22.051 125.300,17.677 C122.138,20.113 119.209,22.835 116.527,25.786 C136.673,35.430 150.627,56.047 150.627,79.872 ZM124.443,135.464 C127.327,135.064 130.143,134.455 132.881,133.655 C130.205,132.223 127.635,130.620 125.177,128.869 C122.927,130.457 120.563,131.892 118.100,133.162 C120.164,134.034 122.276,134.811 124.443,135.464 ZM115.235,136.016 C114.689,135.770 114.152,135.511 113.615,135.252 C113.096,135.466 112.573,135.671 112.048,135.872 C113.103,135.946 114.165,135.997 115.235,136.016 ZM113.733,131.117 C116.642,129.808 119.426,128.268 122.047,126.501 C119.067,124.121 116.287,121.500 113.725,118.678 C111.265,121.410 108.546,123.904 105.602,126.115 C108.178,127.974 110.891,129.653 113.733,131.117 ZM103.354,134.606 C105.347,134.148 107.300,133.587 109.207,132.922 C106.822,131.546 104.537,130.016 102.346,128.368 C100.123,129.806 97.796,131.092 95.375,132.211 C97.956,133.186 100.617,133.995 103.354,134.606 ZM90.851,136.032 C92.090,136.032 93.316,135.977 94.535,135.897 C93.145,135.385 91.781,134.820 90.439,134.214 C88.753,134.806 87.033,135.321 85.279,135.753 C87.112,135.935 88.970,136.032 90.851,136.032 ZM74.383,133.554 C78.246,133.368 81.997,132.755 85.600,131.776 C83.116,130.386 80.740,128.828 78.476,127.126 C75.228,128.842 71.778,130.220 68.172,131.220 C70.183,132.116 72.256,132.897 74.383,133.554 ZM63.031,132.869 C62.805,132.749 62.590,132.610 62.365,132.487 C62.111,132.527 61.853,132.557 61.597,132.593 C62.074,132.687 62.550,132.788 63.031,132.869 ZM50.930,129.260 C52.046,129.337 53.168,129.391 54.303,129.391 C55.270,129.391 56.229,129.354 57.182,129.297 C55.434,128.098 53.765,126.795 52.157,125.423 C49.895,125.906 47.569,126.214 45.192,126.325 C47.038,127.413 48.950,128.399 50.930,129.260 ZM38.047,126.065 C37.374,125.985 36.705,125.891 36.041,125.780 C37.092,126.212 38.159,126.613 39.246,126.971 C38.837,126.680 38.447,126.366 38.047,126.065 ZM20.776,46.148 C24.017,44.171 27.542,42.622 31.267,41.552 C33.498,39.240 35.921,37.115 38.515,35.209 C31.812,37.539 25.779,41.312 20.776,46.148 ZM50.170,32.730 C45.894,34.671 41.936,37.185 38.358,40.144 C39.932,39.969 41.529,39.871 43.149,39.871 C44.222,39.871 45.281,39.924 46.334,40.002 C48.762,37.285 51.420,34.779 54.299,32.541 C52.907,32.541 51.532,32.614 50.170,32.730 ZM50.898,40.583 C54.825,41.300 58.571,42.543 62.053,44.250 C64.056,40.893 66.354,37.731 68.922,34.812 C66.110,33.915 63.185,33.279 60.178,32.912 C56.810,35.127 53.711,37.714 50.898,40.583 ZM71.825,28.040 C70.934,28.040 70.049,28.063 69.168,28.108 C67.817,28.678 66.494,29.304 65.199,29.975 C67.431,30.454 69.610,31.076 71.727,31.833 C72.989,30.571 74.289,29.347 75.652,28.194 C74.387,28.103 73.114,28.040 71.825,28.040 ZM79.739,24.836 C79.799,24.845 79.860,24.851 79.921,24.860 C79.962,24.831 79.1000,24.799 80.040,24.770 C79.939,24.790 79.840,24.816 79.739,24.836 ZM75.482,33.348 C78.942,34.900 82.207,36.810 85.219,39.048 C86.836,36.412 88.618,33.888 90.569,31.506 C87.455,30.313 84.200,29.413 80.837,28.829 C78.963,30.229 77.177,31.742 75.482,33.348 ZM88.815,23.763 C87.560,24.421 86.335,25.129 85.135,25.872 C87.908,26.547 90.601,27.424 93.199,28.494 C94.596,26.977 96.051,25.514 97.579,24.130 C95.371,23.864 93.129,23.711 90.851,23.711 C90.168,23.711 89.492,23.739 88.815,23.763 ZM96.891,20.272 C98.407,20.426 99.901,20.652 101.383,20.917 C102.676,19.907 103.995,18.928 105.361,18.012 C102.456,18.555 99.631,19.322 96.891,20.272 ZM116.266,16.989 C115.678,16.989 115.096,17.017 114.513,17.034 C111.618,18.476 108.852,20.138 106.226,21.986 C108.527,22.600 110.769,23.355 112.952,24.229 C115.171,21.702 117.550,19.319 120.101,17.127 C118.832,17.045 117.555,16.989 116.266,16.989 ZM122.808,13.609 C123.305,13.660 123.796,13.735 124.291,13.798 C124.787,13.433 125.269,13.049 125.775,12.696 C124.775,12.974 123.788,13.284 122.808,13.609 ZM136.471,10.684 C134.065,11.877 131.746,13.219 129.512,14.682 C157.972,20.800 179.377,46.194 179.377,76.516 C179.377,101.974 164.282,123.952 142.597,133.973 C146.276,135.358 150.106,136.431 154.057,137.154 C183.860,131.805 206.557,105.653 206.557,74.270 C206.557,39.034 177.953,10.368 142.791,10.368 C140.658,10.368 138.551,10.478 136.471,10.684 ZM166.140,3.735 C159.272,3.735 152.644,4.779 146.400,6.708 C181.958,8.594 210.308,38.175 210.308,74.270 C210.308,103.869 191.237,129.072 164.768,138.232 C165.226,138.241 165.680,138.267 166.140,138.267 C203.151,138.267 233.261,108.092 233.261,71.001 C233.261,33.910 203.151,3.735 166.140,3.735 Z"/>
</svg>