<svg xmlns="http://www.w3.org/2000/svg" xmlns:xlink="http://www.w3.org/1999/xlink" viewBox="0 0 453.94 476.76"><defs><style>.cls-1{fill:#fff;}.cls-2{fill:url(#linear-gradient);}.cls-3{fill:url(#linear-gradient-2);}.cls-4{fill:#282828;}</style><linearGradient id="linear-gradient" x1="14" y1="228.31" x2="347.51" y2="228.31" gradientUnits="userSpaceOnUse"><stop offset="0" stop-color="#3fe3c6"/><stop offset="0.35" stop-color="#bd71fe"/><stop offset="0.67" stop-color="#3fe3c6"/><stop offset="1" stop-color="#bb2aff"/></linearGradient><linearGradient id="linear-gradient-2" x1="41.35" y1="245.82" x2="439.94" y2="245.82" gradientUnits="userSpaceOnUse"><stop offset="0" stop-color="#3fe3c6"/><stop offset="0.22" stop-color="#ffceac"/><stop offset="0.41" stop-color="#bd71fe"/><stop offset="0.61" stop-color="#17fb41"/><stop offset="0.85" stop-color="#fbd9ae"/><stop offset="1" stop-color="#bb2aff"/></linearGradient></defs><g id="Layer_2" data-name="Layer 2"><g id="Elements"><g id="_26" data-name="26"><path class="cls-1" d="M239.72,14h1.64c.92,0,1.83,0,2.75.05l1.33,0c1.11,0,2.22.08,3.33.14l.66,0c1.32.07,2.64.16,3.95.26l1.12.1,2.84.26,1.37.15,2.65.3,1.31.17c1,.14,2.05.28,3.07.44l.8.11c1.28.2,2.55.42,3.82.64l1,.19,2.83.55,1.3.27,2.55.56c.43.1.86.19,1.29.3.95.22,1.89.45,2.83.69l.73.18.17.05c1.24.32,2.48.66,3.71,1l.9.26,2.8.85,1.24.39c.84.27,1.68.54,2.52.83l1.2.4c1,.34,2,.69,2.93,1.05l.67.24c1.19.45,2.37.9,3.55,1.37l1,.39q1.29.53,2.58,1.08l1.2.51,2.4,1.07,1.12.51c1,.47,2,.95,3,1.44l.35.16.06,0c.66.32,1.32.66,2,1l1,.51c1,.51,2,1,2.93,1.55L347.51,49q-1.45-.8-2.94-1.56l-.12-.06a165.26,165.26,0,0,1,37.4,26.52c36,33.84,58.2,84.51,58.09,143.89s-22.52,116.33-58.65,160.31-86,75.08-141,82.81a185.92,185.92,0,0,1-26,1.84,167.44,167.44,0,0,1-80.91-20.37l.4.22-27.35-14.87a165.8,165.8,0,0,1-34.34-24.89C36.11,369,13.89,318.33,14,258.94c0-1.84,0-3.68.08-5.52,0-.62,0-1.25.06-1.87,0-1.21.08-2.42.14-3.63,0-.73.09-1.46.13-2.2.06-1.09.12-2.19.2-3.29.05-.77.12-1.54.19-2.32.08-1.05.16-2.09.26-3.14.07-.81.17-1.61.25-2.42.11-1,.2-2,.32-3,.1-.82.21-1.64.32-2.47.12-1,.24-2,.38-2.94s.25-1.67.37-2.5.29-1.94.44-2.9.29-1.68.44-2.51.32-1.91.5-2.86.32-1.68.49-2.52.36-1.88.56-2.82.36-1.68.55-2.52.4-1.86.61-2.79.4-1.67.61-2.51.44-1.84.67-2.76.44-1.67.66-2.51.48-1.82.73-2.73.48-1.67.72-2.51.51-1.8.78-2.69.51-1.67.77-2.51.55-1.77.84-2.65.55-1.66.83-2.49.58-1.77.89-2.64.58-1.65.87-2.47c.24-.67.47-1.35.72-2,.08-.22.17-.43.25-.65.21-.58.43-1.15.65-1.72.38-1,.77-2,1.17-3l.72-1.82c.4-1,.81-2,1.22-3,.24-.59.49-1.18.74-1.77.44-1.05.9-2.09,1.36-3.13l.66-1.51c.65-1.46,1.32-2.9,2-4.34l.12-.25q1.08-2.28,2.2-4.53c.23-.48.48-1,.72-1.44.52-1,1-2,1.57-3.07.29-.56.58-1.12.88-1.68s.55-1.06.84-1.59c.13-.25.28-.5.42-.75,1.08-2,2.18-4,3.31-5.94l0-.1q1.72-3,3.53-5.92l1-1.57c1-1.65,2.07-3.3,3.13-4.92.22-.33.42-.66.64-1,1.25-1.9,2.53-3.77,3.82-5.63l.35-.52,1.24-1.73,1.27-1.77c.61-.84,1.23-1.67,1.85-2.51l1.22-1.63c.69-.92,1.4-1.82,2.1-2.73l1.05-1.35q1.59-2,3.23-4c1-1.29,2.13-2.57,3.21-3.83l1.06-1.23,1.7-2L79,91.2q2.15-2.43,4.34-4.78l.7-.74q1.89-2,3.82-4l1.37-1.38c1.19-1.19,2.4-2.38,3.61-3.55.37-.35.72-.7,1.09-1,1.55-1.48,3.11-2.93,4.7-4.36l.27-.26.71-.61q2.15-1.92,4.34-3.78c.43-.38.87-.75,1.31-1.12,1.74-1.46,3.49-2.9,5.26-4.3l.71-.56q2.37-1.86,4.78-3.66L117.46,56c1.82-1.34,3.66-2.67,5.53-4l0,0q2-1.4,4-2.74l1.26-.81,2.91-1.88c.54-.34,1.08-.66,1.61-1l2.62-1.6,1.74-1,2.55-1.48,1.8-1,2.55-1.4,1.82-1,2.62-1.36,1.78-.91c.93-.47,1.86-.92,2.79-1.37l1.65-.8.41-.2c1.24-.58,2.49-1.15,3.75-1.72l.83-.36c1.16-.51,2.31-1,3.48-1.5l1.31-.55c1.13-.47,2.26-.93,3.4-1.37l1-.39q2.16-.84,4.32-1.62l1-.37,3.43-1.19,1.34-.44c1.22-.41,2.44-.8,3.67-1.18l.8-.25q2.21-.66,4.44-1.29l1.16-.32c1.14-.31,2.29-.61,3.43-.9l1.36-.34c1.34-.34,2.69-.65,4-1l.5-.11c1.51-.34,3-.65,4.55-1l1.28-.25,3.45-.63,1.35-.23c1.54-.25,3.08-.49,4.62-.71s2.78-.37,4.17-.53l1.3-.15,2.89-.3,1.46-.13c.95-.09,1.9-.16,2.84-.23l1.33-.1c1.24-.08,2.47-.15,3.69-.2l.41,0c1.36-.06,2.72-.1,4.07-.13l1.21,0,2.65,0m30.36,14.91-1.37,0h-1.59c1,0,2,0,3,0m-4.87,0h-.79l-1.21,0-.84,0,2.8-.05h0m10,.18-2.42-.1-.71,0c1.05,0,2.09.07,3.13.12m-17.66.06L260.4,29l-1.25,0-.42,0-1.18.06m23.33.29-.15,0c-1.31-.1-2.63-.19-4-.26h-.22c1.44.08,2.89.17,4.32.29m-28.18,0h0l2.89-.21-.54,0-1.34.1-1,.08m32.64.38-.65-.07q-1.31-.14-2.61-.24c1.09.09,2.18.2,3.26.31m-37.83.1c1-.11,2.06-.22,3.08-.31l-1.18.11-1.9.2m42.74.48-.23,0-1.32-.17-1.37-.16c1,.12,1.95.23,2.92.36m-49.05.28h-.15c-1.54.22-3.08.46-4.62.71h0c1.54-.25,3.08-.49,4.62-.71h.15c1.48-.21,3-.39,4.44-.56l-.42.05q-2,.22-4,.51m50.89,0,2.68.41-.88-.15-.81-.12-1-.14h0m7.18,1.2-.56-.11-1-.19-1.1-.18c.89.15,1.78.31,2.66.48m-66.89.27-.75.14h0l.75-.14,2.71-.49h0l-2.71.49m71.39.64-.93-.2-1.32-.27-.43-.09,2.68.56m-73.42-.25h0l-.26,0c-.73.14-1.45.3-2.18.45.73-.15,1.45-.31,2.18-.45l.26,0h0m78,1.31-1.66-.41-1-.23c.9.2,1.8.42,2.69.64m-83-.25-.68.16h-.1l-.09,0h0l-1.38.32h0l-.11,0h0l-.07,0-.07,0h0l-.11,0h0l-1.32.33h0l1.32-.33h0l.11,0h0l.07,0,.07,0h0l.11,0h0l1.38-.32h0l.09,0h.1l.68-.16h0m87.92,1.53c-.94-.26-1.87-.52-2.81-.76l-.43-.11,3.24.87m3.48,1,1.36.42-.24-.07-1.12-.35-2.19-.65.51.15,1.68.5M211.07,37.34l-.2.06h0l.2-.06,3.06-.89-3.06.89m110.34.3.16,0,1,.33-1.12-.38-1.82-.6,1.82.6m2.9,1,2.58.94-.51-.2-.69-.24-1.38-.5-.05,0,.05,0m4.3,1.6c.8.32,1.61.63,2.41,1l-.14-.06-1-.39-1.31-.51h0m-128,.58c-.38.13-.75.28-1.12.42.37-.14.74-.29,1.12-.42h0m134.5,2.11-.45-.2-1.2-.52-.73-.3,2.38,1m4.06,1.85-1-.47-1.12-.51-.25-.11,2.36,1.09m-149.75.47-2.3,1h0l2.29-1,1.18-.51h0l-1.18.51M343.1,46.7l.52.27.31.16-.83-.43L341.61,46l-.42-.21-.37-.17,2.28,1.12M180.5,49.33l-1.62.79-1.19.59h0l1.19-.59,1.61-.78h0M173.29,53l2.62-1.36h0L173.29,53h0m-4.37,2.38,2.17-1.19c-.73.39-1.45.79-2.16,1.19h0m-11.84,7.11-1.41.91h0l1.4-.9m-6.05,4-.69.47h0l.69-.47M143.38,72l0,0,0,0h0m-4.76,3.65h0l-.72.57h0l.73-.57h0M127,85.39h0l-.06,0-.24.22-.43.38-.25.22h0l.25-.22.43-.38.24-.22.06,0h0m-5.68,5.22-.07.07-.55.53.55-.53.07-.06h0m-10.56,10.66,0,0h0l0,0,.31-.33-.31.33m-5.38,6-.87,1c-.07.08-.13.16-.2.23h0l.21-.24.87-1M100,113.52l-1,1.17c-.64.8-1.29,1.6-1.93,2.41l-.34.43h0l.33-.42c.64-.81,1.29-1.61,1.93-2.41l1-1.17c.56-.69,1.15-1.37,1.72-2.06-.57.69-1.16,1.37-1.72,2.06m-6.38,8.09,1.53-2-1.53,2h0m-4.35,5.93-.22.31c-.45.64-.91,1.28-1.35,1.92h0c.44-.64.9-1.28,1.35-1.92l.22-.31M75.59,148.82l0,.05,0-.05v0h0v0m-7.06,13.11h0c.52-1,1-2.06,1.57-3.09h0c-.53,1-1.06,2.05-1.57,3.08h0M67,165c-.43.87-.84,1.73-1.26,2.6l-.13.29h0c0-.1.09-.19.13-.29.42-.87.83-1.73,1.26-2.6l.81-1.65h0L67,165m-1.49,3.1q-1,2.18-2,4.38h0q1-2.19,2-4.35v0m-2.92,6.46h0l0,0c-.37.84-.73,1.68-1.09,2.52h0c.36-.84.72-1.68,1.09-2.52l0,0h0c.08-.2.17-.39.26-.59v0l-.25.57m-1.85,4.32h0c-.41,1-.82,2-1.22,3h0c.4-1,.81-2,1.22-3h0m-4.61,11.91a1.55,1.55,0,0,0-.08.23l0,.09h0l0-.09a1.55,1.55,0,0,1,.08-.23m-1.86,5.35,0,.08h0l0-.08,0-.1,0,.1M53,200c-.12.4-.25.8-.37,1.2l-.05.14h0s0-.09.05-.14c.12-.4.25-.8.37-1.2m-1.19,3.83c0,.1-.05.2-.08.29-.19.62-.36,1.24-.54,1.86.18-.62.35-1.24.54-1.86,0-.09.05-.19.08-.28h0m-1.66,5.8-.57,2.16h0l.57-2.15m-1.55,6c-.11.42-.21.85-.31,1.27a1.16,1.16,0,0,0,0,.18v0l0-.2c.1-.42.21-.85.31-1.27m-1,3.95h0c-.21.93-.41,1.87-.62,2.81h0c.21-.93.41-1.87.62-2.81h0m-3.5,18.35-.06.42,0,.17h0l0-.17.06-.42m-.7,4.91c0,.37-.1.75-.14,1.12h0c0-.38.09-.75.14-1.12m-1.1,9.84c0-.27,0-.55.07-.82h0c0,.27,0,.55-.07.82M42,257.31l0,.33c-.06,1-.11,2-.17,2.93.06-1,.11-1.95.17-2.93l0-.33h0m-.33,5.58c0,.59-.05,1.18-.07,1.77,0-.59,0-1.18.07-1.77v-.09h0v.09m3.69,53.71q-1-5.12-1.73-10.34.75,5.22,1.73,10.34m11.54,38.75q-1.87-4.56-3.55-9.27,1.66,4.71,3.55,9.27m47.5,66.81-1.21-1.06,1.21,1.06m4.06,3.41-1.47-1.2,1.47,1.2m4,3.17-1.57-1.22,1.57,1.22m4,3-1.59-1.16,1.59,1.16m4.11,2.86c-.5-.33-1-.68-1.5-1,.5.35,1,.7,1.5,1m4.18,2.73-1.08-.7,1.08.7m4.49,2.73.78.44-.78-.44-.23-.14.23.14M239.72,0l-2.85,0h-1.3c-1.58,0-3,.08-4.38.14l-.41,0h-.06c-1.26.06-2.6.13-3.94.22l-1,.08-.39,0-3.06.24-1.57.15c-1,.09-2.06.2-3.1.32l-.4,0-1,.11c-1.63.2-3.09.39-4.47.58s-3.11.46-4.95.76l-1.15.2-.29,0c-1.23.21-2.48.44-3.71.67l-.38.07-1,.19c-1.75.35-3.35.68-4.86,1L195,5l-.09,0c-1.39.31-2.84.66-4.33,1l-1.35.34-.09,0c-1.21.31-2.45.63-3.68,1l-.38.1-.86.24c-1.65.46-3.25.92-4.75,1.38l-.6.19-.25.08c-1.3.4-2.62.82-3.92,1.25l-1.43.47c-1.21.41-2.44.84-3.66,1.28l-.35.12-.75.27c-1.55.56-3.1,1.14-4.62,1.73l-.69.27-.34.14c-1.23.48-2.45,1-3.63,1.46l-1.39.59c-1.23.51-2.48,1.05-3.71,1.6l-.28.12-.6.27c-1.43.64-2.74,1.24-4,1.83l-.41.2-.05,0-1.21.59-.52.25c-1,.48-2,1-3,1.46-.52.26-1,.52-1.55.79l-.34.17-2.79,1.45-1.93,1-2.71,1.49-1.92,1.08-2.7,1.57-.26.16-1.59.94-2.78,1.7L125,34l-1.23.77c-1,.65-2.07,1.32-3.1,2l-.45.29-.88.57c-1.48,1-2.93,2-4.3,2.91l-.13.09,0,0c-1.76,1.21-3.63,2.55-5.74,4.11l-1.51,1.12c-1.76,1.31-3.46,2.62-5.05,3.87l-.22.17-.54.42c-1.76,1.39-3.58,2.88-5.56,4.55l-1.06.89-.33.29c-1.56,1.33-3.11,2.67-4.59,4l-.14.12-.6.52-.35.33c-1.64,1.48-3.29,3-4.91,4.55l-.77.74-.38.37c-1.29,1.24-2.57,2.5-3.81,3.74L77.89,71.9c-1.37,1.4-2.73,2.81-4,4.19l-.22.23-.51.55c-1.47,1.57-3,3.21-4.56,5l0,0-.39.43c-.45.51-.89,1-1.33,1.54l-.47.53-.36.42-.76.88c-1.21,1.42-2.32,2.74-3.38,4S59.6,92.51,58.44,94c-.25.31-.49.63-.74,1l-.37.48c-.74,1-1.48,1.9-2.21,2.86l-.91,1.22-.38.51-1.95,2.65-1,1.43-.3.43-.43.59-.88,1.23-.35.52,0,.06c-1.43,2.06-2.75,4-4,5.9l-.45.69-.22.34c-1.08,1.66-2.19,3.4-3.3,5.18l0,0-1,1.61c-1.43,2.34-2.61,4.33-3.71,6.23l-.05.09,0,.08c-1.06,1.85-2.19,3.88-3.45,6.2l-.08.13-.36.66-.59,1.11-.29.56-.15.28-.79,1.49-1.65,3.24-.24.49c-.18.34-.35.68-.52,1-.84,1.69-1.59,3.25-2.31,4.77l-.13.29c-.69,1.45-1.39,3-2.09,4.55L22.9,153l-.22.5c-.49,1.1-1,2.2-1.44,3.31-.24.58-.49,1.16-.73,1.75l-.05.11c-.43,1-.86,2.07-1.28,3.12-.25.63-.51,1.27-.76,1.91q-.63,1.6-1.23,3.21l-.16.41-.53,1.4-.06.18c-.07.17-.14.34-.2.52l-.51,1.41-.25.71-.19.53-.73,2.07q-.41,1.16-.78,2.31l-.16.47-.19.55c-.23.69-.46,1.38-.68,2.08s-.48,1.5-.71,2.25l-.17.55-.2.62c-.21.67-.42,1.35-.62,2s-.44,1.51-.66,2.27l-.17.57-.18.64c-.19.67-.39,1.34-.57,2s-.42,1.52-.62,2.28l-.15.6-.17.64c-.18.67-.36,1.34-.53,2s-.38,1.51-.56,2.27l-.15.64-.16.67c-.17.66-.33,1.32-.48,2l-.51,2.28-.14.66-.16.73c-.14.64-.29,1.28-.42,1.93s-.31,1.52-.45,2.28l-.14.7-.14.73c-.13.64-.26,1.29-.38,1.94s-.28,1.54-.41,2.31l-.12.7-.13.74-.33,1.92L3,220.82l-.1.71-.12.75c-.09.63-.19,1.26-.28,1.89-.11.8-.21,1.6-.31,2.4l-.09.72-.1.76c-.08.62-.16,1.23-.23,1.85-.1.81-.18,1.61-.26,2.42l-.08.78-.09.79c-.06.59-.13,1.18-.18,1.77-.08.86-.15,1.72-.22,2.59L.84,239l-.06.76c-.05.56-.1,1.13-.14,1.69-.06.91-.12,1.83-.17,2.75l0,.73,0,.76-.09,1.57c0,1.08-.08,2.17-.12,3.25l0,.58c0,.23,0,.46,0,.68,0,.44,0,.87,0,1.31C0,255,0,257,0,258.92-.06,289.8,5.52,319,16.57,345.81A192,192,0,0,0,62.5,413a179.28,179.28,0,0,0,37.24,27l27.35,14.88h0a180.39,180.39,0,0,0,87.2,21.85,201.23,201.23,0,0,0,27.91-2A221.41,221.41,0,0,0,325,445.14,258.21,258.21,0,0,0,392.11,387a274.07,274.07,0,0,0,45.13-78.37,260.18,260.18,0,0,0,16.7-90.8c.06-30.88-5.51-60.12-16.56-86.89a191.8,191.8,0,0,0-45.94-67.23,179.38,179.38,0,0,0-37.24-27h0L326.85,21.84c-1-.57-2.12-1.14-3.19-1.7l-.75-.38-.33-.17-.27-.13-1.85-.94-.09,0-.41-.2,0,0c-1.09-.53-2.18-1.05-3.28-1.56l-.91-.41-.3-.14c-.87-.4-1.74-.78-2.61-1.16l-1.3-.56c-.93-.4-1.86-.79-2.8-1.17l-.32-.13-.72-.29c-1.32-.53-2.62-1-3.85-1.49l-.54-.19-.19-.07Q301.59,10.55,300,10L299,9.64l-.25-.09L296,8.65l-.07,0-1.27-.4c-1-.32-2-.62-3.05-.92l-.29-.08L290.6,7c-1.3-.37-2.62-.74-3.94-1.08l-.29-.08-.61-.15-.16,0-3.06-.75-1.23-.28-.17,0L278.38,4l-.09,0L277,3.71c-1-.21-2-.41-3-.59l-.33-.07-.75-.14c-1.39-.25-2.78-.48-4.14-.69l-.62-.09-.25,0-3.32-.47-1.14-.14-.27,0c-1-.12-1.91-.23-2.87-.33L258.74,1,255.67.67l-.38,0-.82-.07C253,.45,251.58.36,250.2.28l-.54,0h-.17L245.89.1l-1.09,0h-.35l-3,0h-1.77Z"/><path class="cls-2" d="M41.49,266.51c0-1.24.08-2.48.14-3.71,0-.73.09-1.46.13-2.2.06-1.09.12-2.19.2-3.29,0-.77.13-1.54.19-2.32.08-1.05.16-2.1.26-3.14.08-.81.17-1.61.25-2.42.11-1,.21-2,.32-3,.1-.82.21-1.63.32-2.45.12-1,.24-2,.38-3,.12-.82.25-1.65.37-2.47.15-1,.29-1.95.45-2.92s.28-1.66.42-2.49.33-1.92.51-2.88.32-1.67.49-2.5.36-1.9.56-2.84.36-1.67.54-2.5.41-1.88.62-2.81.4-1.67.61-2.5.44-1.85.67-2.77.44-1.67.66-2.5.48-1.83.73-2.74.48-1.67.72-2.5.51-1.8.78-2.7.51-1.67.77-2.5.55-1.78.84-2.67.55-1.65.82-2.47.59-1.77.9-2.66.58-1.63.87-2.45.64-1.79,1-2.69c.21-.57.43-1.13.65-1.7.38-1,.77-2,1.17-3.06l.72-1.8c.4-1,.81-2,1.22-3l.74-1.76c.44-1.05.9-2.09,1.36-3.13l.66-1.52q1-2.19,2-4.35a1.6,1.6,0,0,1,.1-.23q1.08-2.28,2.2-4.54c.23-.47.48-.95.72-1.42.51-1,1-2.06,1.57-3.08.29-.56.58-1.12.88-1.67.41-.79.84-1.57,1.26-2.35q1.62-3,3.31-5.94a.47.47,0,0,0,0-.1c1.15-2,2.34-4,3.53-5.92l1-1.57c1-1.66,2.07-3.3,3.14-4.92.21-.33.41-.66.63-1,1.25-1.9,2.53-3.77,3.83-5.63.52-.75,1.05-1.5,1.58-2.24.42-.59.84-1.19,1.27-1.78.61-.84,1.23-1.67,1.85-2.5.41-.55.81-1.1,1.22-1.64.69-.92,1.4-1.82,2.1-2.72l1.06-1.37c1.06-1.34,2.13-2.68,3.22-4s2.13-2.57,3.21-3.83c.35-.42.71-.82,1.07-1.24.69-.79,1.38-1.59,2.08-2.37,1.43-1.62,2.88-3.21,4.35-4.79l.69-.73c1.26-1.34,2.54-2.66,3.82-4l1.37-1.38c1.19-1.19,2.4-2.38,3.62-3.55l1.08-1q2.33-2.22,4.7-4.36l1-.87q2.14-1.92,4.34-3.78c.44-.38.87-.75,1.32-1.12,1.73-1.46,3.48-2.9,5.25-4.3l.72-.57c1.58-1.24,3.17-2.45,4.77-3.65l1.43-1.06c1.83-1.34,3.66-2.67,5.53-4q2-1.41,4.1-2.77l1.24-.81,2.93-1.88c.53-.34,1.06-.66,1.6-1l2.63-1.61c.57-.35,1.15-.69,1.73-1l2.55-1.48,1.81-1,2.54-1.4,1.82-1,2.62-1.36,1.78-.91c.93-.47,1.87-.92,2.8-1.37l1.64-.8q2.07-1,4.16-1.92l.84-.36c1.15-.51,2.31-1,3.47-1.51l1.31-.54c1.13-.47,2.26-.93,3.4-1.38l1-.38c1.44-.56,2.88-1.1,4.33-1.62l1-.37,3.43-1.19,1.35-.45c1.21-.4,2.43-.79,3.65-1.16l.81-.26q2.2-.67,4.44-1.29l1.17-.32c1.14-.31,2.28-.61,3.43-.9l1.35-.34c1.34-.34,2.68-.65,4-1l.52-.12c1.51-.33,3-.64,4.54-.94l1.28-.25c1.15-.22,2.3-.43,3.46-.63l1.34-.23c1.54-.25,3.08-.49,4.62-.71,1.39-.19,2.78-.37,4.17-.53l1.3-.15,2.89-.3,1.47-.13c.94-.09,1.89-.16,2.83-.23l1.34-.1c1.23-.08,2.46-.15,3.68-.2l.42,0c1.36-.05,2.71-.1,4.06-.12l1.21,0,2.88,0h1.41c.92,0,1.83,0,2.75.05l1.33,0c1.12,0,2.23.08,3.33.14l.66,0c1.32.07,2.64.16,4,.26l1.12.1c.95.08,1.89.16,2.84.26l1.37.14,2.64.31,1.32.17,3.06.43.81.12c1.28.2,2.55.42,3.82.64l1,.19,2.81.55,1.32.27,2.54.56,1.29.29,2.84.7.89.23c1.24.32,2.48.66,3.71,1l.9.26,2.8.85,1.25.39,2.51.82,1.2.41c1,.34,2,.69,2.92,1l.69.24c1.19.45,2.37.9,3.54,1.37l1,.39,2.58,1.07,1.2.52,2.4,1.07,1.12.51,3,1.43.42.21,2,1,.95.48q1.49.77,2.94,1.56L320.16,34.13c-1-.53-2-1-2.93-1.55l-1-.51c-.65-.33-1.31-.67-2-1l-.06,0-.35-.16c-1-.49-2-1-3-1.44l-1.12-.51-2.4-1.07-1.2-.51q-1.29-.55-2.58-1.08l-1-.39c-1.18-.47-2.36-.92-3.55-1.37l-.67-.24c-1-.36-2-.71-2.93-1.05l-1.2-.4c-.84-.29-1.68-.56-2.52-.83l-1.24-.39-2.8-.85-.9-.26c-1.23-.35-2.47-.69-3.71-1l-.17-.05-.73-.18c-.94-.24-1.88-.47-2.83-.69-.43-.11-.86-.2-1.29-.3l-2.55-.56-1.3-.27-2.83-.55-1-.19c-1.27-.22-2.54-.44-3.82-.64l-.8-.11c-1-.16-2.05-.3-3.07-.44l-1.31-.17-2.65-.3-1.37-.15-2.84-.26-1.12-.1c-1.31-.1-2.63-.19-3.95-.26l-.66,0c-1.11-.06-2.22-.1-3.33-.14l-1.33,0c-.92,0-1.83,0-2.75-.05h-1.42l-2.87,0-1.21,0c-1.35,0-2.71.07-4.07.13l-.41,0c-1.22.05-2.45.12-3.69.2l-1.33.1c-.94.07-1.89.14-2.84.23l-1.46.13-2.89.3-1.3.15c-1.39.16-2.78.34-4.17.53s-3.08.46-4.62.71l-1.35.23-3.45.63-1.28.25c-1.52.3-3,.61-4.55,1l-.5.11c-1.35.31-2.7.62-4,1l-1.36.34c-1.14.29-2.29.59-3.43.9l-1.16.32q-2.24.63-4.44,1.29l-.8.25c-1.23.38-2.45.77-3.67,1.18l-1.34.44-3.43,1.19-1,.37q-2.16.78-4.32,1.62L168,28c-1.14.44-2.27.9-3.4,1.37l-1.31.55c-1.17.49-2.32,1-3.48,1.5l-.83.36c-1.26.57-2.51,1.14-3.75,1.72l-.41.2-1.65.8c-.93.45-1.86.9-2.79,1.37l-1.78.91-2.62,1.36-1.82,1-2.55,1.4-1.8,1L137.22,43l-1.74,1-2.62,1.6c-.53.34-1.07.66-1.61,1l-2.91,1.88-1.26.81q-2,1.35-4,2.74l0,0c-1.87,1.29-3.71,2.62-5.53,4L116,57.09q-2.41,1.8-4.78,3.66l-.71.56c-1.77,1.4-3.52,2.84-5.26,4.3-.44.37-.88.74-1.31,1.12q-2.19,1.86-4.34,3.78l-.71.61-.27.26c-1.59,1.43-3.15,2.88-4.7,4.36-.37.34-.72.69-1.09,1-1.21,1.17-2.42,2.36-3.61,3.55l-1.37,1.38q-1.93,2-3.82,4l-.7.74Q81.17,88.78,79,91.2l-.39.42-1.7,2-1.06,1.23c-1.08,1.26-2.16,2.54-3.21,3.83s-2.17,2.66-3.23,4L68.38,104c-.7.91-1.41,1.81-2.1,2.73l-1.22,1.63c-.62.84-1.24,1.67-1.85,2.51l-1.27,1.77-1.24,1.73-.35.52c-1.29,1.86-2.57,3.73-3.82,5.63-.22.32-.42.65-.64,1-1.06,1.62-2.1,3.27-3.13,4.92l-1,1.57q-1.8,2.94-3.53,5.92l0,.1c-1.13,2-2.23,4-3.31,5.94-.14.25-.29.5-.42.75-.29.53-.56,1.06-.84,1.59s-.59,1.12-.88,1.68c-.53,1-1,2-1.57,3.07-.24.48-.49,1-.72,1.44q-1.12,2.25-2.2,4.53l-.12.25c-.67,1.44-1.34,2.88-2,4.34l-.66,1.51c-.46,1-.92,2.08-1.36,3.13-.25.59-.5,1.18-.74,1.77-.41,1-.82,2-1.22,3l-.72,1.82c-.4,1-.79,2-1.17,3-.22.57-.44,1.14-.65,1.72-.08.22-.17.43-.25.65-.25.67-.48,1.35-.72,2-.29.82-.59,1.64-.87,2.47s-.6,1.76-.89,2.64-.56,1.65-.83,2.48-.56,1.77-.84,2.66-.52,1.67-.77,2.51-.52,1.79-.78,2.69-.49,1.67-.72,2.51-.49,1.82-.73,2.73-.45,1.67-.66,2.51-.45,1.84-.67,2.76-.41,1.67-.61,2.51-.41,1.86-.61,2.79-.38,1.68-.55,2.52-.38,1.88-.56,2.82-.34,1.68-.49,2.52-.34,1.9-.5,2.86-.3,1.67-.44,2.51-.29,1.93-.44,2.9-.26,1.66-.37,2.5-.26,2-.38,2.94c-.11.83-.22,1.65-.32,2.47-.12,1-.21,2-.32,3-.08.81-.18,1.61-.25,2.42-.1,1.05-.18,2.09-.26,3.14-.07.78-.14,1.55-.19,2.32-.08,1.1-.14,2.2-.2,3.29,0,.74-.1,1.47-.13,2.2-.06,1.21-.1,2.42-.14,3.63,0,.62-.05,1.25-.06,1.87-.05,1.84-.08,3.68-.08,5.52C13.89,318.33,36.11,369,72.09,402.85a165.8,165.8,0,0,0,34.34,24.89l27.35,14.87a165.38,165.38,0,0,1-34.34-24.88c-36-33.85-58.2-84.52-58.09-143.91,0-1.84,0-3.68.08-5.52C41.44,267.7,41.47,267.11,41.49,266.51Z"/><path class="cls-3" d="M381.85,73.91c36,33.84,58.2,84.51,58.09,143.89s-22.52,116.33-58.65,160.31-86,75.08-141,82.81-104.83-9.35-140.81-43.19-58.2-84.52-58.09-143.91S63.88,157.49,100,113.52s86-75.08,141-82.81S345.88,40.06,381.85,73.91Z"/><path class="cls-4" d="M319.07,116.62,338,114.44c2.1-.23,3.39,1.75,2.51,3.85l-20.15,48.17,23.63-2.7c1.53-.18,2.37,1.39,1.53,2.84l-52.59,93.29a2.4,2.4,0,0,1-1.73,1.24,1.67,1.67,0,0,1-1.85-2.31L314.67,182l-22.42,2.69c-2.12.25-3.42-1.76-2.52-3.87l26.47-61.87A3.82,3.82,0,0,1,319.07,116.62Z"/><path class="cls-4" d="M169.8,165.63c8.65-1.22,15.64,12.93,15.6,31.61s-7.08,34.8-15.73,36S154,220.32,154.08,201.64,161.15,166.84,169.8,165.63Z"/><path class="cls-4" d="M399.16,245.27a23,23,0,0,0-11-6.16,34.4,34.4,0,0,0-13.26-.59,39.27,39.27,0,0,0-13.22,4.32,32.77,32.77,0,0,0-10.91,9.3c-1.47,2-1.32,4.71.34,6.06a3.43,3.43,0,0,0,2.65.7,4.57,4.57,0,0,0,3-1.88,22.93,22.93,0,0,1,7.67-6.47,31.15,31.15,0,0,1,8.28-3,5,5,0,0,0-.23.78,202.54,202.54,0,0,1-19.66,55.43c-12.91,24-29.93,42.61-49.05,56a142.18,142.18,0,0,1-61.62,24.53c-30.35,4.26-60.66-2.07-84.67-18.63a106.45,106.45,0,0,1-30.58-32.48c-8.12-13.37-13.94-29.26-16.69-47.71a3.87,3.87,0,0,0-.22-.86,26,26,0,0,1,7,.74,16.48,16.48,0,0,1,7.89,4.33,3.35,3.35,0,0,0,3,1,4.42,4.42,0,0,0,2.7-1.51,4.63,4.63,0,0,0,.27-6.15,23,23,0,0,0-11-6.16,34.37,34.37,0,0,0-13.26-.59,39.27,39.27,0,0,0-13.22,4.32,32.74,32.74,0,0,0-10.9,9.3c-1.47,2-1.32,4.71.33,6.06a3.39,3.39,0,0,0,2.65.7,4.57,4.57,0,0,0,3-1.88A23,23,0,0,1,96,288.27a30.87,30.87,0,0,1,6.46-2.57,4.9,4.9,0,0,0-.2,2.22c2.9,19.51,9.08,36.45,17.75,50.69a113.31,113.31,0,0,0,52.79,45.71c21.27,9.07,45.27,12,69.33,8.59,29.91-4.21,60-18.14,84.81-42.11a175.5,175.5,0,0,0,32.62-43.42,213,213,0,0,0,20.7-58.26,4.54,4.54,0,0,0-.09-2.24,25.27,25.27,0,0,1,5.17.73,16.4,16.4,0,0,1,7.88,4.33,3.36,3.36,0,0,0,3,1,4.45,4.45,0,0,0,2.7-1.51A4.62,4.62,0,0,0,399.16,245.27Z"/></g></g></g></svg>