<svg xmlns="http://www.w3.org/2000/svg" xmlns:xlink="http://www.w3.org/1999/xlink" viewBox="0 0 463.03 446.99"><defs><style>.cls-1{fill:#fff;}.cls-2{fill:url(#linear-gradient);}.cls-3{fill:url(#linear-gradient-2);}.cls-4{fill:#282828;}</style><linearGradient id="linear-gradient" x1="-113.62" y1="483.19" x2="264.55" y2="483.19" gradientTransform="translate(188.19 -265.48) rotate(7.17)" gradientUnits="userSpaceOnUse"><stop offset="0" stop-color="#3fe3c6"/><stop offset="0.22" stop-color="#ffceac"/><stop offset="0.41" stop-color="#bd71fe"/><stop offset="0.61" stop-color="#17fb41"/><stop offset="0.85" stop-color="#fbd9ae"/><stop offset="1" stop-color="#bb2aff"/></linearGradient><linearGradient id="linear-gradient-2" x1="50.48" y1="479.14" x2="321.63" y2="479.14" gradientTransform="translate(188.19 -265.48) rotate(7.17)" gradientUnits="userSpaceOnUse"><stop offset="0" stop-color="#3fe3c6"/><stop offset="0.35" stop-color="#bd71fe"/><stop offset="0.67" stop-color="#3fe3c6"/><stop offset="1" stop-color="#bb2aff"/></linearGradient></defs><g id="Layer_2" data-name="Layer 2"><g id="Elements"><g id="_01" data-name="01"><path class="cls-1" d="M203.91,14l57.5.28c1.49,0,3,0,4.48.09l1.44.06c1,0,2.05.09,3.07.15l1.67.1,2.91.23c.55.05,1.11.09,1.66.15l.93.08,2.28.26,1.25.14c1.47.18,2.95.37,4.43.59l.79.13q1.83.28,3.66.6l1.48.28,1.7.31,1.52.31,1.11.23c1.43.3,2.86.62,4.28,1l.57.14c1.26.31,2.52.63,3.78,1l1.16.31,1,.28c.38.1.76.23,1.15.34q1.94.56,3.87,1.17l1.87.59c1.41.46,2.82.94,4.22,1.44.35.13.71.24,1.06.36l.3.12c1.76.64,3.51,1.3,5.26,2,.3.11.59.24.88.36,1.46.59,2.91,1.2,4.37,1.84l.5.21,2.4,1.1,1.46.66q2.22,1,4.44,2.16l2.43,1.24c.29.15.57.31.85.47,1,.54,2.07,1.1,3.09,1.67l1.72,1c1.18.68,2.36,1.36,3.52,2.06l1,.58.18.11c1.53.93,3.06,1.89,4.56,2.86l1.08.72c1.14.75,2.28,1.5,3.4,2.28l.47.32c.37.25.73.52,1.09.78,1,.68,1.93,1.37,2.89,2.07l1.65,1.22c.92.7,1.84,1.4,2.75,2.11.32.25.66.49,1,.75s.39.32.58.47c1.07.85,2.12,1.71,3.16,2.58l1.12.92q2.1,1.77,4.14,3.6l.14.13c.22.19.43.4.64.59q1.72,1.56,3.4,3.15l1.34,1.29c1,.93,1.9,1.86,2.84,2.81l.8.79.46.48c1.39,1.43,2.77,2.88,4.12,4.35l.27.31q1.89,2.08,3.72,4.21c.17.19.34.37.5.56s.37.46.56.68q2,2.32,3.88,4.71l.36.44c1.35,1.71,2.67,3.46,4,5.21l.45.6c.3.4.59.82.88,1.22l1.11,1.54c.55.77,1.09,1.55,1.63,2.33l1,1.48c.58.86,1.15,1.73,1.72,2.6.28.42.56.84.83,1.26q1.23,1.9,2.41,3.82l.07.1h0l0,.06c.92,1.48,1.81,3,2.69,4.49l.86,1.51c.59,1,1.18,2.08,1.75,3.13.33.6.65,1.2,1,1.8.52,1,1,1.95,1.54,2.93.33.63.65,1.26,1,1.9.49,1,1,1.95,1.45,2.94.19.38.38.75.56,1.13.11.22.2.45.31.67.78,1.65,1.55,3.31,2.29,5,.06.15.13.3.2.45q1.2,2.72,2.32,5.48c.22.53.43,1.05.64,1.58q.83,2.08,1.62,4.17c.21.55.42,1.1.62,1.65q1,2.81,2,5.65c.5,1.46,1,2.92,1.44,4.4.15.48.29,1,.44,1.44.31,1,.61,2,.91,3,.16.56.32,1.13.49,1.69l.78,2.82c.16.59.31,1.17.47,1.75.25,1,.49,1.92.73,2.88.14.56.28,1.11.41,1.67.26,1.07.51,2.15.75,3.22l.3,1.34c.33,1.51.65,3,.95,4.56.06.26.1.53.16.8.24,1.27.48,2.53.7,3.8.1.53.18,1.06.27,1.59.17,1,.34,2,.5,3l.27,1.79c.14,1,.28,1.94.41,2.91l.24,1.81c.13,1,.24,2,.36,3,.06.56.13,1.11.19,1.67.12,1.2.24,2.4.35,3.59,0,.37.07.74.1,1.11.13,1.56.25,3.13.35,4.69,0,.41.05.81.07,1.21.07,1.17.13,2.34.19,3.52l.06,1.72c0,.65.06,1.3.08,2,0,.28,0,.57,0,.86,0,1.12,0,2.24.05,3.37,0,.69,0,1.39,0,2.09,0,1.25,0,2.5,0,3.74,0,.57,0,1.14,0,1.71,0,1.82-.1,3.64-.19,5.46l0,.57c-.08,1.63-.18,3.26-.29,4.9,0,.11,0,.23,0,.35-.1,1.31-.2,2.62-.32,3.93,0,.15,0,.31,0,.46-.14,1.6-.31,3.19-.49,4.79-.05.5-.12,1-.18,1.51-.13,1.1-.26,2.2-.41,3.3-.08.6-.17,1.21-.26,1.82s-.17,1.27-.26,1.9c-.07.41-.14.82-.2,1.24s-.15.94-.23,1.41c-.19,1.22-.4,2.44-.62,3.66-.06.33-.11.65-.17,1-.28,1.51-.58,3-.89,4.54-.07.38-.16.76-.24,1.14-.15.74-.3,1.47-.46,2.21-.06.26-.13.52-.19.78q-.62,2.76-1.3,5.5c-.06.23-.11.46-.16.68q-.78,3.06-1.65,6.11c-.06.2-.11.4-.16.6-.12.41-.25.82-.37,1.23-.4,1.34-.8,2.68-1.22,4q-.3,1-.63,2c-.45,1.4-.92,2.79-1.4,4.19-.14.4-.26.8-.4,1.21l-.16.43c-.41,1.17-.85,2.34-1.28,3.5l-.63,1.72q-1,2.61-2.05,5.19l-.48,1.15c-.19.45-.39.89-.58,1.34-.5,1.19-1,2.36-1.53,3.53q-.45,1-.9,2-.76,1.68-1.56,3.33c-.18.38-.35.77-.53,1.15l-.41.82c-.55,1.13-1.12,2.25-1.68,3.36l-.9,1.76c-.71,1.36-1.44,2.71-2.17,4l-.45.84-.06.11q-1.38,2.47-2.82,4.91c-.27.45-.55.9-.82,1.36-.7,1.15-1.4,2.31-2.11,3.44-.13.2-.25.41-.37.61l-.7,1.08c-.68,1.06-1.37,2.11-2.06,3.15l-1.15,1.72c-.72,1.05-1.45,2.1-2.19,3.14-.25.35-.49.72-.75,1.07l-.3.42c-1.13,1.56-2.27,3.11-3.44,4.63l-.31.39c-1.06,1.39-2.15,2.76-3.25,4.12-.13.16-.25.33-.39.49s-.46.55-.69.82q-1.46,1.77-2.94,3.48c-.37.43-.73.86-1.11,1.29-1.31,1.49-2.63,3-4,4.41l0,0-.19.2c-1.4,1.5-2.83,3-4.27,4.42l-1.14,1.13c-1.52,1.5-3.05,3-4.61,4.42l0,0c-1.08,1-2.17,2-3.28,3l-1,.87c-.79.69-1.59,1.38-2.39,2.05l-1.29,1.07L371,393l-1.38,1.1c-.36.27-.7.56-1.06.83l-.87.66c-.75.58-1.51,1.15-2.27,1.71l-1.71,1.27-2.34,1.67c-.57.4-1.13.8-1.71,1.19-.81.56-1.63,1.11-2.45,1.65l-1.64,1.09-2.7,1.71-1.23.78-.18.1c-1.78,1.09-3.57,2.14-5.38,3.17l-1.3.72c-1.71.95-3.43,1.88-5.16,2.77l-.45.24q-2.77,1.41-5.59,2.73l-1.37.63c-1.89.87-3.8,1.72-5.72,2.52A172.8,172.8,0,0,1,260,433h-.83l-57.5-.29H202A172.42,172.42,0,0,1,124.67,414C77.24,390.11,43,347.15,26.05,297A229.74,229.74,0,0,1,31,136.92C52.52,84.3,91.31,46.28,136.51,27.44A172.82,172.82,0,0,1,203.07,14l2.51,0c-.56,0-1.11,0-1.67,0m6.44.17h0l-.51,0-1.45-.05h-.07l2,.09m3.5.18,1.31.09-.59,0-.72-.05h0m6.08.5-.78-.08-.9-.08,1.68.16m4.75.55c-.36-.05-.72-.11-1.08-.15l-1-.11,2.06.26m4.75.68-.6-.1-.79-.13-.78-.1c.73.1,1.45.21,2.17.33m4.75.81-.21,0-1.48-.27L232,16.5l2.18.39m4.73.95-.61-.13-1.11-.23-.46-.09,2.18.45m4.73,1.09-.5-.12-.56-.14-1.12-.25,2.18.51m4.71,1.23-.26-.07-1.17-.32-.73-.18,2.16.57m7.86,2.38-.22-.07-.35-.12.57.19m5.74,2-.38-.15L260.36,24c.53.19,1.06.37,1.59.57m5.11,1.95-.22-.09-.82-.31,1,.4m7.72,3.33.25.11.09,0-.09,0-.06,0-.19-.09h0m6.1,2.91,1.69.87,1.59.84h0l-1.59-.84-1.69-.87h0M289,37.06h0l-1.7-1h0l1.7,1m4.62,2.7.07,0h0l-.07,0-1.08-.63h0l1.08.64m4.64,2.91c.35.22.69.46,1,.69-.35-.23-.69-.47-1-.69h0m10.57,7.39-.75-.56.75.55h0M316.28,56l.41.34.61.5.09.08h0l-.09-.08-.61-.5-.41-.34h0m6,5.2.05,0h0l0,0-.56-.52.56.52m4.78,4.47h0l-.84-.81.84.81h0m2.85,2.82.11.11c.19.19.37.38.56.56l.58.6h0l-.58-.59c-.19-.18-.37-.37-.56-.56l-.11-.11h0m5.37,5.62.05,0,.17.2.05,0h0l-.05,0-.17-.2-.05,0h0m9,10.5.15.18-.15-.18,0,0h0l0,0m4.31,5.62c.09.12.18.23.26.35l1,1.39-1-1.39c-.08-.12-.17-.23-.26-.35h0m4.07,5.68-1.08-1.54,1.07,1.53h0m2.72,4,0,0h0l0,0c-.56-.85-1.13-1.71-1.7-2.55h0c.58.85,1.14,1.7,1.7,2.55m3.07,4.8,0,0h0l.18.3h0l-.18-.31h0l0,0-1.27-2,1.27,2m.31.51h0m5.28,9.12c.33.59.65,1.2,1,1.8h0l-1-1.79h0m2.52,4.73,0,.07,0-.07h0m2.42,4.83h0c.2.43.41.86.62,1.28l.24.53h0l-.24-.52c-.21-.42-.42-.85-.62-1.28h0m3.16,6.8.06.13-.06-.13v0h0v0m3.08,7.31.07.19h0l-.07-.18c-.13-.32-.26-.65-.4-1,.14.33.27.66.4,1m2.31,6h0c-.2-.56-.41-1.1-.62-1.65h0l.61,1.65h0m4.3,12.85c.09.28.18.57.26.86v0h0c.08.25.15.5.22.75h0c-.07-.25-.14-.5-.22-.75h0v0c-.08-.29-.17-.58-.26-.86l-.42-1.37h0l.42,1.38m1.68,5.87a2.45,2.45,0,0,1,.08.29h0a2.45,2.45,0,0,0-.08-.29c-.23-.85-.46-1.7-.7-2.54h0c.24.85.47,1.69.7,2.54m.55,2h0l0,.08c.12.45.23.9.34,1.35-.11-.45-.22-.9-.34-1.35l0-.08h0m4.78,22.92h0q-.18-1.2-.39-2.4c.14.8.27,1.6.4,2.4m.68,4.7h0c-.07-.55-.15-1.1-.23-1.65l.24,1.65m.59,4.82h0c-.11-1-.23-2-.36-3h0c.13,1,.25,2,.36,3m.54,5.29h0l-.18-1.91.18,1.89v0m.67,9.76q-.06-1.41-.15-2.82v0c.06.93.11,1.86.15,2.8m.27,10.74h0c0-.22,0-.44,0-.66,0,.22,0,.44,0,.66M391,239.39h0c-.05.77-.12,1.53-.18,2.3.06-.77.13-1.53.18-2.3h0m-1.71,16.15h0c0,.09,0,.17,0,.26-.06.42-.13.84-.19,1.27.07-.43.13-.85.19-1.27,0-.09,0-.17,0-.26h0m-.78,5.09q-.25,1.58-.54,3.15v0c.19-1.06.37-2.12.54-3.17l.06-.33-.06.33m-.71,4.11h0c-.22,1.21-.45,2.41-.69,3.62h0l-.18.92h0l.18-.91h0c.24-1.21.47-2.41.69-3.62h0m-1.12,5.68h0q-.31,1.5-.66,3h0q.35-1.5.66-3h0m-1.95,8.5h0a.5.5,0,0,0,0,.12c-.05.18-.09.37-.14.56h0c.05-.19.09-.38.14-.56a.27.27,0,0,1,0-.12m-3.56,12.62h0l-.63,2h0l.63-2h0m-2,6.18h0c-.19.52-.36,1.06-.55,1.58h0l0,.05h0l0-.05h0c.19-.53.36-1.06.55-1.59M377.22,303l-.33.88.33-.88,0-.14h0l0,.14m-5.54,13.51c-.2.43-.4.87-.59,1.31h0c.19-.44.39-.87.59-1.31m-3.09,6.6h0l.88-1.83-.88,1.83m-1.91,3.8c-.22.44-.44.88-.67,1.32h0c.23-.44.45-.88.67-1.32.08-.15.16-.3.23-.45h0l-.23.46m-2.89,5.45c-.13.25-.26.49-.4.73.14-.24.27-.48.4-.73l.06-.11,0,0-.08.14m-3.29,5.79,0,0h0l0,0m-3.66,5.94-.33.52h0l.33-.53M354,348.46l-.69,1h0l.69-1,.46-.69h0l-.46.69m-3.9,5.61,0,0h0l0,0c.35-.48.68-1,1-1.44h0c-.35.48-.68,1-1,1.45m-3.46,4.67h0l-.28.36h0l0,0,0,0h0l.28-.36M342,364.57h0l1.08-1.32h0L342,364.57m-4,4.76h0c.37-.42.74-.85,1.1-1.28h0c-.36.43-.73.86-1.1,1.28M323.71,384h0q-1.65,1.53-3.32,3h0q1.67-1.47,3.32-3m-4.33,3.87h0c-.79.69-1.58,1.37-2.38,2,.8-.67,1.59-1.36,2.38-2.05M315.7,391h0l-.37.31.37-.31m-5.47,4.37h0l1.92-1.49h0l-1.92,1.5m-4,3h0l1-.77-1,.77m-8,5.53-.08.05,0,0h0l0,0,.08-.05m-10.89,6.55h0M275,416.63l-.23.11h0l.23-.11m-10.1,4.3c1.39-.54,2.77-1.09,4.14-1.67,1.08-.45,2.16-.92,3.23-1.39-1.07.47-2.15.94-3.23,1.39-1.37.58-2.75,1.13-4.14,1.67m-1.38.51c-.92.35-1.83.7-2.76,1l0,0,0,0c.93-.33,1.84-.68,2.76-1m-7,2.5,2.53-.87-2.53.87m-1.81.58c-.81.26-1.62.52-2.44.76.81-.24,1.63-.5,2.44-.76m-6.71,2,2.38-.68-2.38.68m-4.3,1.12c.79-.19,1.57-.4,2.36-.61-.79.21-1.57.42-2.36.61m-4.34,1,2.37-.55-2.37.55m-4.35.9q1.19-.22,2.37-.48-1.18.26-2.37.48m-4.37.79,2.36-.41-2.36.41m-2,.33-2.37.35,2.37-.35m-6.8.91,2.4-.29-2.4.29m-2,.22c-.81.09-1.61.16-2.42.23.81-.07,1.61-.14,2.42-.23m-6.89.56,2.46-.16-2.46.16m-4.5.22,2.51-.1-2.51.1m-2,.06-2.59,0,2.59,0M204,0V0h-.91a186,186,0,0,0-71.94,14.51,200.17,200.17,0,0,0-66.26,45.2A222.65,222.65,0,0,0,18,131.62a243.69,243.69,0,0,0-5.23,169.9A227.39,227.39,0,0,0,53.16,374.3a203.3,203.3,0,0,0,65.22,52.18,185.5,185.5,0,0,0,83.18,20.22h0l57.5.29h.9a186.2,186.2,0,0,0,72-14.52c1.88-.79,3.84-1.65,6.17-2.72l1.47-.68c2.23-1,4.2-2,6-2.94l.44-.23.07,0c1.72-.89,3.54-1.87,5.52-3l.07,0,1.33-.74c2.05-1.17,3.9-2.26,5.67-3.33l.3-.19.93-.58.41-.26c1-.61,1.94-1.21,2.9-1.84.44-.28.87-.57,1.3-.86l.47-.31c.88-.58,1.76-1.17,2.63-1.77l1.55-1.08.29-.2,2.51-1.79,1.84-1.36c.82-.61,1.63-1.23,2.44-1.85l.25-.18.68-.52.78-.61.35-.29c.5-.39,1-.78,1.49-1.18.78-.63,1.56-1.26,2.33-1.9l.34-.29,1-.86,2.57-2.21.34-.29.73-.64c1.25-1.1,2.4-2.14,3.52-3.18l.13-.12,0,0c1.47-1.37,3-2.88,4.81-4.62l1.22-1.22c1.66-1.66,3.13-3.18,4.49-4.63l.29-.31.12-.13,0,0c1.29-1.39,2.65-2.9,4.15-4.61l.9-1,.29-.34c1.06-1.22,2.11-2.47,3.14-3.72l.16-.19c.19-.22.39-.45.58-.69l.4-.5,0-.06c1.2-1.47,2.36-2.94,3.45-4.36l0,0,.31-.41c1.15-1.49,2.34-3.1,3.63-4.89l0,0c.11-.15.22-.31.34-.46l.57-.82L420,361c.86-1.22,1.63-2.31,2.34-3.36l1.23-1.82c.71-1.07,1.43-2.17,2.19-3.37l.21-.32.55-.83.34-.57.06-.1c.66-1,1.37-2.21,2.24-3.65l.29-.47c.19-.33.39-.65.59-1,1-1.74,2-3.47,2.94-5.14l.14-.25.36-.65.1-.2c.86-1.56,1.61-3,2.31-4.3.23-.45.46-.89.68-1.34l.28-.54c.7-1.37,1.26-2.5,1.78-3.57l.1-.2c.12-.22.23-.45.34-.68s.28-.58.41-.88c.06-.11.11-.23.16-.34q.84-1.76,1.65-3.54c.33-.71.65-1.42,1-2.13.49-1.11,1-2.3,1.62-3.75.06-.15.13-.29.19-.44.15-.33.29-.66.43-1l.5-1.22c.73-1.77,1.44-3.57,2.18-5.51l.45-1.23.22-.6c.46-1.22.91-2.45,1.35-3.68v0c.06-.16.11-.31.17-.46.11-.31.21-.62.31-.93l.12-.36c.55-1.6,1-3.05,1.49-4.45L452,296c.43-1.36.87-2.8,1.29-4.26,0-.12.08-.24.11-.36.1-.32.2-.63.29-.94s.11-.41.16-.62l0-.06c.66-2.33,1.23-4.44,1.74-6.45,0-.19.09-.38.14-.57l0-.15c.47-1.87.92-3.78,1.38-5.84l0-.12c.06-.23.12-.47.17-.71.13-.6.25-1.19.38-1.78l.12-.56.08-.41c.06-.26.12-.53.17-.8.34-1.64.65-3.26.94-4.83l.12-.7.06-.33c.23-1.29.45-2.59.66-3.88.09-.5.16-1,.24-1.51l.07-.44c.05-.29.1-.58.14-.87.07-.46.13-.91.2-1.37l.09-.65.06-.44.21-1.48c.15-1.18.29-2.34.43-3.51l.07-.52c0-.36.08-.72.13-1.08.2-1.79.37-3.45.51-5.08,0-.14,0-.29,0-.44v-.07c.14-1.57.24-2.9.33-4.15l0-.43c.12-1.66.22-3.39.3-5.14v-.09l0-.51c.08-1.85.15-3.8.19-5.79,0-.4,0-.81,0-1.22v-.59c0-1.33,0-2.65,0-4,0-.54,0-1.09,0-1.64v-.58q0-1.78-.06-3.57v-.21c0-.23,0-.47,0-.71,0-.47,0-.95-.05-1.43l0-.64v-.44l-.06-1.38c-.05-1.25-.12-2.49-.2-3.74l0-.42c0-.28,0-.57-.05-.85-.11-1.66-.23-3.34-.37-5,0-.27,0-.53-.07-.79l0-.38c-.12-1.27-.24-2.54-.37-3.81l-.15-1.29,0-.49c-.12-1.07-.25-2.14-.38-3.2-.08-.64-.17-1.28-.25-1.92-.14-1-.29-2.06-.44-3.09-.1-.64-.19-1.27-.29-1.9-.17-1.08-.34-2.15-.52-3.23l-.09-.5c-.07-.4-.13-.79-.2-1.19-.22-1.25-.47-2.57-.75-4l-.05-.26c0-.2-.07-.4-.11-.6-.31-1.56-.65-3.18-1-4.84-.07-.31-.14-.63-.22-.94l-.1-.47c-.26-1.14-.52-2.29-.8-3.42l-.33-1.37-.1-.4-.78-3.06c-.16-.62-.33-1.24-.5-1.86-.27-1-.55-2-.83-3l-.07-.25-.45-1.55c-.31-1.07-.63-2.13-1-3.2l-.15-.49-.32-1c-.54-1.69-1-3.22-1.53-4.67-.62-1.83-1.29-3.74-2.12-6-.17-.46-.34-.92-.52-1.38l-.14-.38c-.56-1.47-1.14-3-1.72-4.43l-.18-.44c-.16-.41-.33-.83-.5-1.24-.87-2.14-1.68-4.05-2.47-5.83-.06-.15-.13-.29-.2-.44l0-.07c-.74-1.67-1.53-3.4-2.42-5.27l0-.08c-.09-.21-.19-.42-.29-.63s-.27-.57-.41-.85l-.18-.35c-.51-1-1-2.09-1.55-3.13l-1-2c-.55-1-1.09-2.08-1.65-3.12l-.21-.39c-.27-.51-.54-1-.82-1.53-.61-1.11-1.24-2.22-1.87-3.33l-.29-.51L431,103c-1-1.67-1.89-3.21-2.8-4.7l0-.05h0l-.08-.13L428,98c-.8-1.3-1.66-2.66-2.54-4l-.6-.91-.29-.44c-.61-.93-1.22-1.85-1.84-2.77l-.82-1.19-.27-.39q-.86-1.25-1.74-2.49l-1.18-1.64-.3-.42-.64-.89-.46-.6-.05-.07c-1.52-2-2.91-3.86-4.23-5.53l-.33-.41-.06-.08c-1.27-1.59-2.62-3.23-4.14-5l-.07-.09-.52-.63-.49-.56-.08-.08c-1.37-1.6-2.67-3.06-3.92-4.44l-.33-.37c-1.32-1.43-2.75-2.94-4.38-4.62l0-.05-.47-.49-.66-.65-.2-.2q-1.51-1.53-3-3l-.2-.19-1.23-1.18c-1.17-1.12-2.4-2.25-3.65-3.39l-.11-.1-.57-.53-.25-.22c-1.4-1.25-2.87-2.52-4.36-3.78l-.81-.68-.38-.31c-1.23-1-2.34-1.93-3.4-2.77l-.07-.06-.55-.45-.77-.59-.28-.21c-1-.79-2-1.55-3-2.27l-1.77-1.31c-.93-.68-1.95-1.41-3.11-2.23l-.32-.23-.84-.61-.51-.34,0,0c-1.07-.74-2.22-1.51-3.61-2.42l-.35-.24-.81-.53c-1.58-1-3.2-2-4.82-3l-.29-.19-.79-.46-.26-.15c-1.45-.86-2.65-1.57-3.79-2.21-.46-.26-.92-.52-1.39-.77l-.46-.26c-1.23-.68-2.32-1.27-3.33-1.8l-.18-.1-.73-.4c-.87-.45-1.74-.9-2.62-1.34-1.51-.76-3.07-1.52-4.78-2.32l-1.08-.5-.49-.22-.62-.28c-.66-.31-1.31-.61-2-.89l-.59-.25h0c-1.47-.65-3-1.29-4.65-2l-.22-.09-.72-.3c-1.79-.71-3.66-1.43-5.58-2.13l-.43-.16-.91-.31-.23-.08c-1.62-.58-3.11-1.08-4.56-1.56l-2-.64c-1.37-.43-2.78-.85-4.19-1.26l-.27-.08-1-.29L309.62,7l-.34-.09L308,6.53c-1.42-.38-2.76-.72-4.08-1l-.13,0-.47-.11c-1.46-.35-3-.69-4.64-1l-.91-.19-.29-.06-.5-.11-1.15-.23-1.28-.24-.55-.1-.36-.07-1.25-.22c-1.26-.23-2.59-.45-4-.66l-.21,0-.65-.1c-1.53-.23-3.14-.45-4.8-.65l-.93-.11-.41,0-.58-.07c-.63-.07-1.26-.15-1.89-.21l-.75-.07-.26,0L276.17,1Q274.6.83,273,.72L271.22.6,267.89.44l-.47,0-1.09,0c-1.76-.06-3.34-.09-4.85-.1L204,0ZM357,336.08l-8.6-5,8.6,5Z"/><path class="cls-2" d="M379.49,149.67a229.79,229.79,0,0,1-4.91,160.11C353,362.4,314.23,400.41,269,419.26S172.09,437.84,124.67,414,43,347.15,26.05,297A229.74,229.74,0,0,1,31,136.92C52.52,84.3,91.31,46.28,136.51,27.44s96.94-18.58,144.37,5.28S362.54,99.55,379.49,149.67Z"/><path class="cls-3" d="M447,254c.15-1.1.28-2.2.41-3.3.06-.51.13-1,.18-1.51.18-1.6.35-3.19.49-4.79,0-.15,0-.31,0-.46.12-1.31.22-2.62.32-3.93,0-.12,0-.24,0-.35.11-1.64.21-3.27.29-4.9l0-.57c.09-1.82.15-3.64.19-5.46,0-.57,0-1.14,0-1.71,0-1.24,0-2.49,0-3.74,0-.7,0-1.4,0-2.09,0-1.13,0-2.25-.05-3.37,0-.29,0-.58,0-.86,0-.66-.05-1.31-.08-2l-.06-1.72c-.06-1.18-.12-2.35-.19-3.52,0-.4,0-.8-.07-1.21-.1-1.56-.22-3.13-.35-4.69,0-.37-.07-.74-.1-1.1-.11-1.2-.23-2.4-.35-3.6-.06-.56-.13-1.11-.19-1.67-.12-1-.23-2-.36-3l-.24-1.81c-.13-1-.27-1.94-.41-2.91l-.27-1.79c-.16-1-.33-2-.5-3-.09-.53-.17-1.06-.27-1.59-.22-1.27-.46-2.53-.7-3.8-.06-.27-.1-.54-.16-.8-.3-1.53-.62-3.05-.95-4.56l-.3-1.34c-.24-1.07-.49-2.15-.75-3.22-.13-.56-.27-1.11-.41-1.67-.24-1-.48-1.92-.73-2.88-.16-.58-.31-1.16-.47-1.75l-.78-2.82c-.17-.56-.33-1.13-.49-1.69-.3-1-.6-2-.91-3-.15-.48-.29-1-.44-1.44-.47-1.48-.94-2.94-1.44-4.4q-1-2.85-2-5.65c-.2-.55-.41-1.1-.62-1.65q-.8-2.08-1.62-4.17c-.21-.53-.42-1.05-.64-1.58q-1.12-2.76-2.32-5.48c-.07-.15-.14-.3-.2-.45-.74-1.67-1.51-3.33-2.29-5-.11-.22-.2-.45-.31-.67-.18-.38-.37-.75-.56-1.13-.47-1-1-2-1.45-2.94-.32-.64-.64-1.27-1-1.9-.5-1-1-2-1.54-2.93-.32-.6-.64-1.2-1-1.8-.57-1-1.16-2.09-1.75-3.13l-.86-1.51c-.88-1.51-1.77-3-2.69-4.49l0-.06h0l-.07-.1q-1.18-1.92-2.41-3.82c-.27-.42-.55-.84-.83-1.26-.57-.87-1.14-1.74-1.72-2.6l-1-1.48c-.54-.78-1.08-1.56-1.63-2.33l-1.11-1.54c-.29-.4-.58-.82-.88-1.22l-.45-.6c-1.31-1.75-2.63-3.5-4-5.21l-.36-.44q-1.9-2.39-3.88-4.71c-.19-.22-.37-.45-.56-.68s-.33-.37-.5-.56q-1.83-2.13-3.72-4.21l-.27-.31c-1.35-1.47-2.73-2.92-4.12-4.35l-.46-.48-.8-.79c-.94-.95-1.88-1.88-2.84-2.81l-1.34-1.29q-1.68-1.59-3.4-3.15c-.21-.19-.42-.4-.64-.59l-.14-.13q-2-1.83-4.14-3.6l-1.12-.92c-1-.87-2.09-1.73-3.16-2.58-.19-.15-.38-.32-.58-.47s-.66-.5-1-.75c-.91-.71-1.83-1.41-2.75-2.11l-1.65-1.22c-1-.7-1.92-1.39-2.89-2.07-.36-.26-.72-.53-1.09-.78L360.2,46c-1.12-.77-2.26-1.53-3.4-2.28L355.72,43c-1.5-1-3-1.93-4.56-2.86L351,40l-1-.58c-1.16-.69-2.34-1.38-3.52-2.06l-1.72-1c-1-.57-2.05-1.13-3.09-1.67-.28-.16-.56-.32-.85-.47L338.38,33q-2.22-1.11-4.44-2.16l-1.46-.66-2.4-1.1-.5-.21c-1.46-.64-2.91-1.25-4.37-1.84-.29-.12-.58-.25-.88-.36-1.75-.71-3.5-1.37-5.26-2l-.3-.12c-.35-.12-.71-.23-1.06-.36-1.4-.5-2.81-1-4.22-1.44l-1.87-.59q-1.94-.61-3.87-1.17c-.39-.11-.77-.24-1.15-.34l-1-.28-1.16-.31c-1.26-.34-2.52-.66-3.78-1l-.57-.14c-1.42-.34-2.85-.66-4.28-1l-1.11-.23-1.52-.31-1.7-.31L290,16.86q-1.83-.32-3.66-.6l-.79-.13c-1.48-.22-3-.41-4.43-.59l-1.25-.14-2.28-.26-.93-.08c-.55-.06-1.11-.1-1.66-.15l-2.91-.23-1.67-.1c-1-.06-2-.11-3.07-.15l-1.44-.06c-1.49,0-3-.08-4.48-.09L203.91,14c1.5,0,3,0,4.48.09l1.45.05,3.07.15,1.66.11,2.91.22,1.67.15c1.07.1,2.14.22,3.21.34l1.24.14q2.22.27,4.44.6l.79.13q1.83.27,3.66.6l1.48.27,3.22.63,1.11.23c1.42.3,2.85.62,4.28,1l.56.14c1.26.3,2.52.63,3.78,1l1.17.32,2.16.62c1.29.37,2.58.76,3.87,1.16.63.2,1.25.39,1.87.6,1.41.46,2.82.94,4.22,1.44l1.36.47q2.64,1,5.27,2l.87.36c1.46.6,2.92,1.21,4.37,1.85,1,.42,1.93.85,2.89,1.3l1.48.67c1.48.7,3,1.41,4.43,2.15,1.11.56,2.19,1.13,3.28,1.71s2.08,1.11,3.11,1.68l1.7,1c1.19.67,2.37,1.37,3.54,2.07l1.15.67c1.54.94,3.06,1.89,4.57,2.87l1.07.71c1.14.75,2.28,1.51,3.41,2.29.52.35,1,.72,1.55,1.09,1,.68,1.94,1.37,2.9,2.07l1.64,1.22c.93.7,1.84,1.4,2.76,2.12l1.55,1.22c1.07.85,2.13,1.71,3.17,2.58l1.11.92q2.1,1.77,4.14,3.6c.27.23.52.48.78.71q1.72,1.56,3.41,3.16c.45.42.89.85,1.33,1.28q1.44,1.39,2.85,2.82l1.25,1.26c1.39,1.44,2.77,2.88,4.12,4.36l.27.3q1.89,2.09,3.73,4.21l1.05,1.24c1.32,1.56,2.61,3.12,3.88,4.71l.36.45c1.36,1.71,2.68,3.45,4,5.21.45.6.89,1.2,1.33,1.81L351,93.56l1.61,2.31,1,1.5,1.72,2.58.84,1.28q1.23,1.9,2.42,3.84l.05.08,0,.08c.91,1.48,1.8,3,2.67,4.48l.86,1.5c.59,1,1.18,2.09,1.76,3.14l1,1.79c.52,1,1,2,1.55,2.94l1,1.89c.5,1,1,2,1.46,2.94.29.6.58,1.2.86,1.8.78,1.65,1.55,3.31,2.29,5,.07.15.14.3.2.45.81,1.82,1.58,3.65,2.33,5.49l.63,1.57c.56,1.39,1.1,2.78,1.63,4.18l.61,1.65c.69,1.87,1.37,3.75,2,5.64.49,1.46,1,2.93,1.43,4.4.15.48.29,1,.44,1.44.31,1,.62,2,.91,3,.17.56.33,1.12.49,1.68.27.94.53,1.89.78,2.83.16.58.32,1.16.47,1.75.25,1,.49,1.91.73,2.88l.42,1.66.75,3.25c.09.43.2.87.29,1.31.34,1.52.66,3,1,4.57,0,.26.09.52.15.78.24,1.27.48,2.54.71,3.81l.27,1.6c.17,1,.34,2,.49,3,.1.59.18,1.18.27,1.78.15,1,.28,1.94.41,2.92q.14.9.24,1.8c.13,1,.25,2,.36,3,.07.56.13,1.12.19,1.68.13,1.19.24,2.39.35,3.59,0,.37.07.73.1,1.1.14,1.57.25,3.13.36,4.7l.06,1.18c.07,1.18.14,2.36.19,3.55,0,.56,0,1.13.06,1.7,0,.94.07,1.89.09,2.84q0,1.68.06,3.36c0,.7,0,1.39,0,2.09,0,1.25,0,2.51,0,3.76,0,.56,0,1.13,0,1.7,0,1.82-.1,3.64-.19,5.46,0,.17,0,.35,0,.52-.08,1.65-.17,3.3-.29,4.94-.1,1.44-.21,2.88-.34,4.31l0,.43c-.15,1.6-.31,3.2-.49,4.8-.06.5-.13,1-.18,1.5-.14,1.1-.27,2.2-.42,3.3-.08.61-.17,1.22-.25,1.82-.15,1.05-.3,2.09-.47,3.14-.07.47-.14.95-.22,1.42-.2,1.22-.41,2.44-.63,3.67-.06.32-.11.64-.17,1-.28,1.52-.57,3-.88,4.55l-.24,1.13q-.31,1.5-.66,3-.62,2.76-1.3,5.5c-.05.22-.1.45-.16.68-.52,2-1.07,4.07-1.65,6.11-.17.6-.35,1.21-.53,1.82-.39,1.34-.8,2.68-1.21,4l-.63,2c-.45,1.4-.92,2.8-1.4,4.2-.19.54-.37,1.09-.57,1.64-.41,1.16-.84,2.33-1.28,3.49-.21.58-.41,1.15-.63,1.73q-1,2.6-2.05,5.19c-.34.84-.7,1.66-1.06,2.49-.5,1.18-1,2.36-1.52,3.52-.3.68-.61,1.35-.91,2-.51,1.11-1,2.21-1.55,3.31-.31.66-.63,1.32-1,2-.55,1.13-1.11,2.24-1.68,3.35l-.9,1.77q-1.06,2-2.16,4c-.17.32-.34.65-.52,1q-1.38,2.47-2.81,4.9c-.27.46-.56.91-.83,1.37-.69,1.15-1.39,2.3-2.11,3.44-.35.56-.71,1.12-1.07,1.68-.68,1.06-1.36,2.12-2.06,3.16l-1.15,1.71q-1.08,1.59-2.19,3.15l-1.05,1.48q-1.69,2.36-3.43,4.63c-.11.14-.22.27-.32.41-1.07,1.39-2.15,2.75-3.24,4.1L342,364.57q-1.46,1.76-2.95,3.48c-.36.43-.73.86-1.1,1.28-1.31,1.49-2.64,3-4,4.41l-.23.24c-1.4,1.5-2.84,3-4.28,4.42l-1.14,1.14q-2.28,2.25-4.6,4.41-1.65,1.53-3.32,3l-1,.88c-.79.69-1.58,1.37-2.38,2-.43.37-.87.72-1.3,1.08-.72.6-1.44,1.19-2.17,1.77l-1.38,1.1-1.92,1.49c-.75.58-1.51,1.15-2.27,1.72l-1.72,1.27c-.77.56-1.55,1.11-2.33,1.66l-1.71,1.2-2.45,1.64-1.65,1.1-2.69,1.7c-.47.29-.94.6-1.42.89q-2.67,1.63-5.38,3.16l-1.3.73c-1.71.95-3.43,1.88-5.16,2.77l-.44.23c-1.85.95-3.72,1.85-5.6,2.73l-1.36.63c-1.9.87-3.8,1.72-5.73,2.52a172.56,172.56,0,0,1-67.39,13.44l57.5.29a173,173,0,0,0,67.39-13.44c1.92-.8,3.83-1.65,5.72-2.52l1.37-.63q2.82-1.32,5.59-2.73l.45-.24c1.73-.89,3.45-1.82,5.16-2.77l1.3-.72c1.81-1,3.6-2.08,5.38-3.17l.18-.1,1.23-.78,2.7-1.71,1.64-1.09c.82-.54,1.64-1.09,2.45-1.65.58-.39,1.14-.79,1.71-1.19l2.34-1.67,1.71-1.27c.76-.56,1.52-1.13,2.27-1.71l.87-.66c.36-.27.7-.56,1.06-.83L371,393l2.17-1.78,1.29-1.07c.8-.67,1.6-1.36,2.39-2.05l1-.87c1.11-1,2.2-2,3.28-3l0,0c1.56-1.44,3.09-2.92,4.61-4.42l1.14-1.13c1.44-1.45,2.87-2.92,4.27-4.42l.19-.2,0,0c1.35-1.45,2.67-2.92,4-4.41.38-.43.74-.86,1.11-1.29q1.48-1.71,2.94-3.48c.23-.27.47-.54.69-.82s.26-.33.39-.49c1.1-1.36,2.19-2.73,3.25-4.12l.31-.39c1.17-1.52,2.31-3.07,3.44-4.63l.3-.42c.26-.35.5-.72.75-1.07.74-1,1.47-2.09,2.19-3.14l1.15-1.72c.69-1,1.38-2.09,2.06-3.15l.7-1.08c.12-.2.24-.41.37-.61.71-1.13,1.41-2.29,2.11-3.44.27-.46.55-.91.82-1.36q1.44-2.43,2.82-4.91l.06-.11.45-.84c.73-1.33,1.46-2.68,2.17-4l.9-1.76c.56-1.11,1.13-2.23,1.68-3.36l.41-.82c.18-.38.35-.77.53-1.15q.8-1.65,1.56-3.33.45-1,.9-2c.52-1.17,1-2.34,1.53-3.53.19-.45.39-.89.58-1.34l.48-1.15q1.05-2.58,2.05-5.19l.63-1.72c.43-1.16.87-2.33,1.28-3.5l.16-.43c.14-.41.26-.81.4-1.21.48-1.4.95-2.79,1.4-4.19q.33-1,.63-2c.42-1.34.82-2.68,1.22-4,.12-.41.25-.82.37-1.23,0-.2.1-.4.16-.6q.87-3,1.65-6.11c.05-.22.1-.45.16-.68q.69-2.74,1.3-5.5c.06-.26.13-.52.19-.78.16-.74.31-1.47.46-2.21.08-.38.17-.76.24-1.14.31-1.51.61-3,.89-4.54.06-.33.11-.65.17-1,.22-1.22.43-2.44.62-3.66.08-.47.16-.94.23-1.41s.13-.83.2-1.24c.09-.63.17-1.27.26-1.9S446.93,254.62,447,254Z"/><path class="cls-4" d="M291.46,185.55c9.36,4.71,13.5,17,9.25,27.34s-15.31,15-24.67,10.3-13.51-17-9.25-27.36S282.09,180.84,291.46,185.55Z"/><path class="cls-4" d="M170.08,124.49c9.37,4.71,13.51,17,9.25,27.35s-15.3,15-24.67,10.28-13.51-17-9.25-27.35S160.72,119.78,170.08,124.49Z"/><path class="cls-4" d="M267.48,304.23a5.67,5.67,0,0,1,1.77,1.43,6.46,6.46,0,0,1-.38,8.45c-16.54,16.66-35.56,26-54.67,28.88a92,92,0,0,1-55.4-9.11,106,106,0,0,1-43-40.47c-10.76-18-17.16-40-17-64.78,0-3.31,2.46-6,5.44-6a5.09,5.09,0,0,1,2.19.53,6,6,0,0,1,3.16,5.49c-.13,22.42,5.62,42.05,15.22,58.09A94.82,94.82,0,0,0,163.27,323a82.05,82.05,0,0,0,49.46,8.15c17-2.6,33.9-10.81,48.89-25.88A5,5,0,0,1,267.48,304.23Z"/></g></g></g></svg>